# xmcd CD database file
# Generated: Пнд Июл 14 19:31:14 2003 by KSCD
# 
# Track frame offsets:
#       150
#       16667
#       37199
#       52658
#       70096
#       86703
#       102717
#       122698
#       138169
#       154559
#       169100
#       185465
#       209974
#       228656
#       245922
#       267921
#       283259
#       297130
#       310944
#       326064
#       343048
#
# Disc length: 4779 seconds
#
# Revision: 3
# Processed by: cddbd v1.4PL0 Copyright (c) Steve Scherf et al.
# Submitted via: Kscd 1.3.3
#
DISCID=4212a915
DTITLE=Леха - Fortress
DYEAR=1900
DGENRE=
TTITLE0=123
TTITLE1=222
TTITLE2=
TTITLE3=333
TTITLE4=
TTITLE5=
TTITLE6=
TTITLE7=
TTITLE8=
TTITLE9=
TTITLE10=
TTITLE11=
TTITLE12=
TTITLE13=
TTITLE14=
TTITLE15=
TTITLE16=
TTITLE17=
TTITLE18=
TTITLE19=
TTITLE20=
EXTD=Черноморское 2003
EXTT0=
EXTT1=
EXTT2=
EXTT3=
EXTT4=
EXTT5=
EXTT6=
EXTT7=
EXTT8=
EXTT9=
EXTT10=
EXTT11=
EXTT12=
EXTT13=
EXTT14=
EXTT15=
EXTT16=
EXTT17=
EXTT18=
EXTT19=
EXTT20=
PLAYORDER=
